<svg width="267" height="34" viewBox="0 0 267 34" fill="none" xmlns="http://www.w3.org/2000/svg">
<path d="M94.5107 27.8866C93.3496 29.1771 91.651 30.2163 89.4149 31.0043C87.1787 31.7927 84.7276 32.187 82.0615 32.187C77.962 32.187 74.6866 30.9328 72.2355 28.4244C69.7844 25.916 68.4728 22.4254 68.3008 17.953L68.2793 15.2441C68.2793 12.1623 68.824 9.47462 69.9134 7.18122C71.0028 4.8733 72.558 3.10313 74.5791 1.87068C76.6146 0.62322 78.9653 0 81.6315 0C85.5304 0 88.5548 0.895715 90.705 2.68765C92.8694 4.46508 94.1308 7.12371 94.4892 10.6646H87.2217C86.9638 8.91565 86.4047 7.66869 85.5447 6.92322C84.6846 6.17774 83.4662 5.80527 81.8895 5.80527C79.9974 5.80527 78.5353 6.60773 77.5033 8.21317C76.4712 9.81861 75.948 12.112 75.9337 15.0934V16.9858C75.9337 20.1107 76.464 22.4611 77.5248 24.038C78.5998 25.6005 80.2841 26.3817 82.5775 26.3817C84.5413 26.3817 86.0033 25.9445 86.9638 25.07V20.2107H81.7175V15.0292H94.5107V27.8866Z" fill="#1937D6"/>
<path d="M129.672 17.2977C129.672 20.3511 129.106 23.0527 127.974 25.4037C126.842 27.7546 125.229 29.5677 123.136 30.8437C121.058 32.1051 118.685 32.7356 116.019 32.7356C113.353 32.7356 110.988 32.1264 108.924 30.9079C106.86 29.6755 105.247 27.9193 104.086 25.6404C102.939 23.361 102.337 20.7454 102.28 17.7925V16.0295C102.28 12.9616 102.839 10.26 103.957 7.92362C105.09 5.5727 106.702 3.75952 108.795 2.48356C110.902 1.20812 113.296 0.569885 115.976 0.569885C118.628 0.569885 120.993 1.20088 123.072 2.46234C125.15 3.72327 126.763 5.52245 127.909 7.85886C129.07 10.1808 129.658 12.8472 129.672 15.8575V17.2977ZM121.997 15.9866C121.997 12.8757 121.474 10.518 120.427 8.91257C119.395 7.29262 117.911 6.48292 115.976 6.48292C112.192 6.48292 110.192 9.3208 109.977 14.9971L109.956 17.2977C109.956 20.3651 110.465 22.7233 111.482 24.3717C112.5 26.0201 114.013 26.8444 116.019 26.8444C117.926 26.8444 119.395 26.0346 120.427 24.4147C121.459 22.7948 121.982 20.4656 121.997 17.4267V15.9866Z" fill="#1937D6"/>
<path d="M196.023 19.3347H174.457V23.0651V26.7955H196.023V32.6008H174.457V1.29523H196.07V7.12205H174.457V13.7229H196.023V19.3347Z" fill="#1937D6"/>
<path d="M152.022 23.7753L158.258 0.984253H166.686L156.151 32.29H147.894L137.444 0.984253H145.808L152.022 23.7753Z" fill="#1937D6"/>
<path d="M215.47 21.083H211.388V32.1346H203.84V0.828796H216.159C219.873 0.828796 222.775 1.65301 224.867 3.30145C226.96 4.94988 228.007 7.27902 228.007 10.2894C228.007 12.4683 227.561 14.2743 226.675 15.7077C225.8 17.1412 224.422 18.3021 222.547 19.1911L229.084 31.8118V32.1346H220.998L215.47 21.083ZM211.388 15.256H216.159C217.594 15.256 218.666 14.8835 219.387 14.138C220.117 13.3785 220.48 12.3248 220.48 10.9774C220.48 9.62994 220.117 8.57674 219.387 7.81676C218.656 7.04279 217.579 6.65582 216.159 6.65582H211.388V15.256Z" fill="#1937D6"/>
<path d="M45.4402 31.9794H37.915V0.673584H45.4402V31.9794Z" fill="#1937D6"/>
<path d="M59.5651 24.7101L58.9771 31.9364L52.3388 25.298L59.5651 24.7101Z" fill="#C4C4C4"/>
<path d="M8.06288 32.031L11.6751 20.3559L15.0293 9.4978L18.4049 20.3559L22.0386 32.031H30.1445L18.5769 0.725342H11.4815L0 32.031H8.06288Z" fill="#1937D6"/>
<path d="M15.0564 30.2547L10.3624 24.7293L19.7504 24.7293L15.0564 30.2547Z" fill="#C4C4C4"/>
<path d="M244.918 32.4454L248.531 20.7703L251.885 9.91222L255.26 20.7703L258.894 32.4454H267L255.432 1.13977H248.337L236.855 32.4454H244.918Z" fill="#1937D6"/>
<path d="M251.912 30.6688L247.218 25.1433L256.606 25.1433L251.912 30.6688Z" fill="#C4C4C4"/>
</svg>
